<?xml version="1.0" standalone="no"?>
<!DOCTYPE svg PUBLIC "-//W3C//DTD SVG 20010904//EN"
 "http://www.w3.org/TR/2001/REC-SVG-20010904/DTD/svg10.dtd">
<svg version="1.0" xmlns="http://www.w3.org/2000/svg"
 width="780.000000pt" height="320.000000pt" viewBox="0 0 780.000000 320.000000"
 preserveAspectRatio="xMidYMid meet">

<g transform="translate(0.000000,320.000000) scale(0.100000,-0.100000)"
fill="#000000" stroke="none">
<path d="M2004 2305 c-4 -8 -4 -30 0 -48 3 -17 12 -72 20 -122 32 -202 59
-365 72 -445 8 -47 21 -132 29 -189 8 -58 19 -109 23 -113 5 -5 156 -7 337 -6
l330 3 17 110 c23 140 46 285 59 355 5 30 23 142 40 249 16 107 32 198 35 203
3 4 -7 8 -23 8 -15 0 -66 2 -112 3 -66 2 -85 -1 -91 -13 -5 -8 -13 -53 -20
-100 -14 -97 -32 -215 -54 -345 -9 -49 -21 -129 -28 -177 l-12 -88 -143 0
c-79 0 -143 2 -143 4 0 2 -5 28 -11 57 -6 30 -17 95 -24 144 -8 50 -23 149
-35 220 -11 72 -25 159 -30 195 -18 121 -6 110 -126 110 -84 0 -106 -3 -110
-15z"/>
<path d="M3132 1848 l3 -473 108 -3 107 -3 0 476 0 475 -110 0 -111 0 3 -472z"/>
<path d="M3500 1848 l0 -468 105 0 105 0 0 90 0 90 143 0 144 0 89 -90 89 -90
119 0 119 0 -76 79 c-42 43 -77 84 -77 89 0 7 34 12 88 14 l87 3 3 372 2 373
-470 2 -470 3 0 -467z m728 90 l2 -168 -260 0 -260 0 0 170 0 170 258 -2 257
-3 3 -167z"/>
<path d="M4600 2213 l0 -103 183 -2 182 -3 3 -362 2 -363 103 0 102 0 0 363 0
362 183 3 c100 1 182 6 182 10 1 4 2 49 3 99 l2 93 -473 2 -472 3 0 -102z"/>
<path d="M5710 1848 l0 -468 465 0 465 0 0 468 0 467 -100 0 -100 0 -1 -320
c0 -176 -1 -338 -2 -360 l-2 -40 -257 -3 -258 -2 0 354 c0 253 -3 357 -11 362
-6 4 -54 7 -105 8 l-94 1 0 -467z"/>
<path d="M6807 2313 c-1 -1 -1 -128 1 -282 l3 -281 362 -2 362 -3 3 -77 3 -78
-366 -2 -367 -3 -1 -103 -2 -102 468 0 467 0 0 285 0 285 -362 2 -363 3 0 75
0 75 363 3 362 2 0 103 0 102 -466 0 c-256 0 -466 -1 -467 -2z"/>
<path d="M921 2294 c0 -11 3 -14 6 -6 3 7 2 16 -1 19 -3 4 -6 -2 -5 -13z"/>
<path d="M1211 2294 c0 -11 3 -14 6 -6 3 7 2 16 -1 19 -3 4 -6 -2 -5 -13z"/>
<path d="M1236 2265 c4 -8 11 -15 16 -15 6 0 5 6 -2 15 -7 8 -14 15 -16 15 -2
0 -1 -7 2 -15z"/>
<path d="M1308 2183 c7 -3 16 -2 19 1 4 3 -2 6 -13 5 -11 0 -14 -3 -6 -6z"/>
<path d="M716 1874 c-4 -9 -4 -19 -1 -22 2 -3 7 3 11 12 4 9 4 19 1 22 -2 3
-7 -3 -11 -12z"/>
<path d="M702 1805 c0 -16 2 -22 5 -12 2 9 2 23 0 30 -3 6 -5 -1 -5 -18z"/>
<path d="M681 1760 c0 -8 4 -24 9 -35 5 -13 9 -14 9 -5 0 8 -4 24 -9 35 -5 13
-9 14 -9 5z"/>
<path d="M672 1660 c0 -14 2 -19 5 -12 2 6 2 18 0 25 -3 6 -5 1 -5 -13z"/>
<path d="M650 1603 c0 -13 5 -23 10 -23 13 0 13 11 0 30 -8 12 -10 11 -10 -7z"/>
<path d="M655 1560 c-3 -5 1 -10 10 -10 9 0 13 5 10 10 -3 6 -8 10 -10 10 -2
0 -7 -4 -10 -10z"/>
<path d="M671 1507 c0 -23 5 -45 14 -53 12 -13 15 -13 15 -2 0 8 -4 18 -9 24
-5 5 -11 23 -14 39 -4 27 -4 26 -6 -8z"/>
<path d="M690 1423 c0 -4 5 -15 10 -23 8 -13 10 -13 10 2 0 9 -4 20 -10 23 -5
3 -10 3 -10 -2z"/>
<path d="M1375 1419 c-4 -6 -5 -12 -2 -15 2 -3 7 2 10 11 7 17 1 20 -8 4z"/>
<path d="M1421 1350 c7 -18 15 -27 22 -23 8 5 8 8 -1 11 -7 2 -12 10 -12 17 0
8 -4 16 -10 20 -5 3 -5 -7 1 -25z"/>
<path d="M715 1359 c-6 -8 -4 -10 5 -4 10 6 12 4 6 -11 -6 -15 -5 -17 5 -6 9
9 10 15 2 23 -8 8 -13 7 -18 -2z"/>
<path d="M1469 1306 c10 -12 8 -15 -11 -19 -13 -2 2 -3 34 -3 31 1 54 4 51 9
-2 4 -15 7 -29 7 -13 0 -24 5 -24 10 0 6 -7 10 -16 10 -13 0 -14 -3 -5 -14z"/>
<path d="M1146 1233 c2 -53 0 -70 -5 -53 -10 29 -14 6 -5 -27 4 -13 10 -20 15
-17 11 7 12 174 1 174 -5 0 -7 -35 -6 -77z"/>
<path d="M762 1280 c7 -10 14 -18 15 -16 6 6 -9 36 -18 36 -5 0 -4 -9 3 -20z"/>
<path d="M989 1263 c-4 -131 -3 -173 4 -173 4 0 7 47 7 105 0 58 -2 105 -5
105 -3 0 -6 -17 -6 -37z"/>
<path d="M1590 1270 c0 -5 5 -10 10 -10 6 0 10 5 10 10 0 6 -4 10 -10 10 -5 0
-10 -4 -10 -10z"/>
<path d="M5975 1251 c-90 -22 -126 -83 -93 -156 16 -34 49 -51 133 -66 70 -12
105 -34 105 -67 0 -67 -151 -81 -195 -19 -12 18 -18 19 -40 9 -34 -16 -32 -34
9 -70 26 -23 49 -32 91 -37 140 -18 238 68 191 167 -21 44 -43 57 -134 74 -85
16 -102 26 -102 61 0 18 9 28 35 39 46 19 61 18 111 -7 34 -16 47 -18 63 -9
26 13 26 22 4 42 -41 35 -121 53 -178 39z"/>
<path d="M787 1243 c-7 -14 -6 -292 1 -297 4 -2 7 65 8 150 1 85 0 154 -2 154
-2 0 -5 -3 -7 -7z"/>
<path d="M4432 1237 c-42 -16 -91 -63 -108 -104 -21 -49 -18 -139 7 -190 47
-98 201 -132 301 -66 26 18 26 18 7 42 -18 23 -20 23 -53 7 -43 -20 -108 -21
-147 0 -30 15 -68 80 -69 116 0 35 33 99 62 119 38 28 115 30 153 5 27 -17 28
-17 47 2 25 25 17 39 -36 63 -46 21 -115 23 -164 6z"/>
<path d="M5385 1231 c-164 -76 -148 -333 23 -381 183 -50 322 125 236 297 -20
42 -35 57 -77 77 -61 31 -125 33 -182 7z m156 -64 c43 -29 59 -60 59 -120 0
-89 -47 -139 -130 -139 -26 0 -57 5 -69 11 -59 32 -81 143 -41 209 37 61 122
79 181 39z"/>
<path d="M2161 1158 c17 -46 49 -134 71 -195 40 -111 41 -113 72 -113 31 0 32
2 75 120 24 66 47 118 50 115 2 -3 23 -56 45 -118 40 -109 42 -112 74 -115 17
-2 32 -2 32 0 0 3 42 122 104 291 l35 97 -39 0 -39 0 -42 -132 c-23 -73 -44
-137 -47 -142 -3 -5 -18 29 -34 75 -70 201 -69 199 -94 199 -20 0 -27 -15 -69
-140 -26 -77 -48 -140 -50 -140 -2 0 -24 63 -50 140 l-47 140 -39 0 -38 0 30
-82z"/>
<path d="M2900 1045 l0 -195 145 0 145 0 0 35 0 35 -110 0 -110 0 0 45 c0 29
5 45 13 46 6 1 55 2 107 3 l95 2 3 32 3 32 -111 0 -111 0 3 48 3 47 108 3 107
3 0 29 0 30 -145 0 -145 0 0 -195z"/>
<path d="M3390 1045 l0 -195 135 0 135 0 0 30 0 30 -100 0 -100 0 0 165 0 165
-35 0 -35 0 0 -195z"/>
<path d="M3850 1045 l0 -195 140 0 140 0 0 30 0 29 -102 3 -103 3 -3 163 -2
162 -35 0 -35 0 0 -195z"/>
<path d="M4840 1045 l0 -195 135 0 135 0 0 30 0 30 -100 0 c-120 0 -113 -13
-108 189 l3 141 -32 0 -33 0 0 -195z"/>
<path d="M6381 1097 c4 -151 11 -176 63 -219 34 -28 114 -42 162 -29 44 12 91
51 105 89 5 13 9 86 9 163 l0 139 -30 0 -30 0 0 -122 c0 -147 -13 -184 -72
-206 -33 -13 -41 -12 -75 4 -55 28 -63 51 -63 197 l0 127 -36 0 -36 0 3 -143z"/>
<path d="M6940 1044 l0 -195 32 3 c31 3 31 3 32 63 l1 60 41 3 c39 3 43 1 95
-62 51 -61 56 -65 98 -65 l43 -1 -58 67 c-54 61 -57 67 -40 77 52 30 68 52 73
100 4 36 1 58 -12 82 -27 51 -66 64 -194 64 l-111 0 0 -196z m228 120 c27 -18
30 -69 5 -96 -13 -14 -31 -18 -93 -18 l-77 0 -2 55 c-1 30 1 60 4 65 10 17
138 12 163 -6z"/>
<path d="M7450 1045 l0 -195 145 0 145 0 0 35 0 35 -111 0 -110 0 3 47 3 47
103 -2 102 -1 0 34 0 35 -105 0 -105 0 0 50 0 50 110 0 110 0 0 30 0 30 -145
0 -145 0 0 -195z"/>
<path d="M1130 1090 c0 -5 5 -10 10 -10 6 0 10 5 10 10 0 6 -4 10 -10 10 -5 0
-10 -4 -10 -10z"/>
<path d="M1119 1058 c-7 -25 -7 -48 0 -43 6 3 9 14 8 25 -1 17 -5 26 -8 18z"/>
<path d="M981 994 c0 -11 3 -14 6 -6 3 7 2 16 -1 19 -3 4 -6 -2 -5 -13z"/>
<path d="M1368 953 c7 -3 16 -2 19 1 4 3 -2 6 -13 5 -11 0 -14 -3 -6 -6z"/>
<path d="M1375 940 c-28 -7 -28 -8 -5 -9 14 0 32 4 40 9 17 11 8 11 -35 0z"/>
<path d="M1448 943 c7 -3 16 -2 19 1 4 3 -2 6 -13 5 -11 0 -14 -3 -6 -6z"/>
<path d="M1075 930 c-4 -6 -6 -25 -4 -43 1 -17 1 -44 0 -59 l-1 -26 -282 -1
c-154 0 -284 -3 -286 -6 -3 -3 305 -5 684 -5 379 0 684 4 677 8 -6 4 -37 7
-67 7 -31 -1 -56 3 -56 7 0 4 -5 8 -11 8 -5 0 -7 -4 -4 -10 3 -5 1 -10 -4 -10
-6 0 -11 6 -11 13 0 8 -3 9 -8 1 -7 -11 -98 -12 -182 -1 -32 5 -38 4 -20 -2
24 -9 24 -9 -7 -10 -17 -1 -35 4 -38 9 -3 6 -16 10 -28 9 -21 0 -21 -1 -2 -9
16 -7 13 -9 -17 -9 -20 -1 -40 4 -43 9 -9 15 -102 13 -109 -2 -5 -10 -7 -10
-12 0 -3 6 -10 12 -15 12 -6 0 -7 -4 -4 -10 4 -6 -21 -10 -67 -10 l-73 0 2 70
c2 70 0 79 -12 60z m258 -127 c-7 -2 -21 -2 -30 0 -10 3 -4 5 12 5 17 0 24 -2
18 -5z"/>
<path d="M1108 813 c6 -2 18 -2 25 0 6 3 1 5 -13 5 -14 0 -19 -2 -12 -5z"/>
<path d="M1163 813 c9 -2 25 -2 35 0 9 3 1 5 -18 5 -19 0 -27 -2 -17 -5z"/>
</g>
</svg>
